<svg preserveAspectRatio="none" viewBox="0 0 84 84" fill="none" xmlns="http://www.w3.org/2000/svg">
  <path
    fill-rule="evenodd"
    clip-rule="evenodd"
    d="M30.3631 82.4987C34.0623 83.5496 38.0697 84 41.9229 84C45.7762 84 49.7836 83.3995 53.6369 82.3485C55.024 82.0483 55.9488 80.8472 55.9488 79.496C55.9488 76.6434 57.4901 73.941 60.1104 72.4397C62.8847 70.9383 65.9673 70.9383 68.5875 72.4397C69.8206 73.1903 71.3619 72.8901 72.2867 71.9893C77.8354 66.5845 81.8428 59.6783 83.8465 52.3217C84.3089 51.1206 83.6923 49.6193 82.4593 49.0188C79.8391 47.5174 78.2978 44.9651 78.2978 41.9625C78.2978 39.1099 79.8391 36.4075 82.4593 34.9062C83.5382 34.3056 84.1547 32.9544 83.8465 31.6032C81.9969 24.0965 77.9895 17.3405 72.2867 11.9357C71.3619 11.0349 69.8206 10.8847 68.5875 11.4853C65.8132 12.9866 62.7306 12.9866 60.1104 11.4853C57.4901 9.98391 55.9488 7.43164 55.9488 4.42895C55.9488 3.07775 55.024 1.87668 53.6369 1.57641C46.0845 -0.525469 37.9155 -0.525469 30.3631 1.57641C28.976 1.87668 28.0512 3.07775 28.0512 4.42895C28.0512 7.2815 26.5099 9.98391 23.8896 11.4853C21.1153 12.9866 18.0327 12.9866 15.4125 11.4853C14.1794 10.7346 12.7922 11.0349 11.7133 11.9357C6.01049 17.3405 2.00309 24.0965 0.153521 31.7534C-0.308871 32.9544 0.307652 34.4558 1.5407 35.0563C4.16092 36.5576 5.70223 39.1099 5.70223 42.1126C5.70223 44.9651 4.16092 47.6676 1.5407 49.1689C0.461783 49.7694 -0.15474 51.1206 0.153521 52.4719C2.00309 59.8284 6.01049 66.5844 11.7133 72.1394C12.6381 73.0402 14.1794 73.1904 15.4125 72.5898C18.1868 71.0885 21.2694 71.0885 23.8896 72.5898C26.5099 74.0912 28.0512 76.6434 28.0512 79.6461C28.0512 80.9973 28.976 82.1984 30.3631 82.4987ZM49.9377 77.0938C44.6973 78.1448 39.3027 78.1448 34.0623 77.0938C33.2916 73.0402 30.8255 69.437 26.9723 67.185C23.119 64.933 18.6492 64.6327 14.6418 66.134C11.0968 62.2306 8.32245 57.7265 6.78114 52.7721C10.0179 50.0697 12.0216 46.1662 12.0216 41.8123C12.0216 37.4584 10.172 33.555 6.78114 30.8525C8.32245 25.8981 11.0968 21.3941 14.6418 17.4906C18.6492 18.992 23.119 18.5416 26.9723 16.4397C30.8255 14.3378 33.2916 10.7346 34.0623 6.53083C39.3027 5.47989 44.6973 5.47989 49.9377 6.53083C50.7084 10.7346 53.1745 14.3378 57.0277 16.4397C60.881 18.6917 65.3508 18.992 69.3582 17.4906C72.9032 21.3941 75.6775 25.8981 77.2189 30.8525C73.9821 33.555 71.9784 37.4584 71.9784 41.8123C71.9784 46.1662 73.828 50.0697 77.2189 52.7721C75.6775 57.7265 72.9032 62.2306 69.3582 66.134C65.3508 64.6327 60.881 65.0831 57.0277 67.185C53.1745 69.2869 50.7084 72.8901 49.9377 77.0938ZM23.4274 41.9624C23.4274 51.8712 31.7505 59.9785 41.9231 59.9785C52.0957 59.9785 60.4188 51.8712 60.4188 41.9624C60.4188 32.0535 52.0957 23.9463 41.9231 23.9463C31.7505 23.9463 23.4274 32.0535 23.4274 41.9624ZM29.5926 41.9624C29.5926 35.3565 35.1413 29.9517 41.9231 29.9517C48.7048 29.9517 54.2535 35.3565 54.2535 41.9624C54.2535 48.5683 48.7048 53.9731 41.9231 53.9731C35.1413 53.9731 29.5926 48.5683 29.5926 41.9624Z"
    fill="#333333"
  />
</svg>