<?xml version="1.0" encoding="utf-8"?><!-- Uploaded to: SVG Repo, www.svgrepo.com, Generator: SVG Repo Mixer Tools -->
<svg fill="#000000" width="800px" height="800px" viewBox="0 0 24 24" id="safebox-2" data-name="Line Color" xmlns="http://www.w3.org/2000/svg" class="icon line-color"><path id="secondary" d="M11,11a2,2,0,1,0-2,2A2,2,0,0,0,11,11Zm0,0h2" style="fill: none; stroke: rgb(44, 169, 188); stroke-linecap: round; stroke-linejoin: round; stroke-width: 2;"></path><path id="primary" d="M20,19H4a1,1,0,0,1-1-1V4A1,1,0,0,1,4,3H20a1,1,0,0,1,1,1V18A1,1,0,0,1,20,19ZM8,19H6v2H8Zm8,2h2V19H16Z" style="fill: none; stroke: rgb(0, 0, 0); stroke-linecap: round; stroke-linejoin: round; stroke-width: 2;"></path></svg>